<svg xmlns="http://www.w3.org/2000/svg" version="1.1" xmlns:xlink="http://www.w3.org/1999/xlink" xmlns:svgjs="http://svgjs.dev/svgjs" width="1000" height="623" viewBox="0 0 1000 623"><g transform="matrix(1,0,0,1,-0.6060606060606233,0.2522267206477409)"><svg viewBox="0 0 396 247" data-background-color="#ffffff" preserveAspectRatio="xMidYMid meet" height="623" width="1000" xmlns="http://www.w3.org/2000/svg" xmlns:xlink="http://www.w3.org/1999/xlink"><defs></defs><g id="tight-bounds" transform="matrix(1,0,0,1,0.2400000000000091,-0.09999999999999432)"><svg viewBox="0 0 395.52 247.2" height="247.2" width="395.52"><g><svg></svg></g><g><svg viewBox="0 0 395.52 247.2" height="247.2" width="395.52"><g><path d="M186.526 234.235h-185.526l0-82.505 69.445 0v30.421h116.081zM1 9.561h181.101v52.083h-111.656l0 33.826-69.445 0zM325.075 9.561h69.445l0 85.909-69.445 0zM368.648 213.129c-17.248 16.34-41.985 24.51-74.21 24.51-23.602 0-42.597-4.198-56.986-12.595-14.434-8.397-24.26-19.971-29.48-34.723-4.105-11.601-5.683-24.465-4.735-38.591l68.167 0c0.144 8.843 1.423 15.624 3.834 20.345 4.176 8.306 11.597 12.459 22.264 12.459 9.759 0 16.794-3.699 21.105-11.097 3.018-5.146 4.979-12.382 5.886-21.707l69.855 0c-1.29 25.924-9.857 46.39-25.7 61.399z" fill="#3d3839" data-fill-palette-color="tertiary"></path></g><g transform="matrix(1,0,0,1,0,101.82527526705012)"><svg viewBox="0 0 395.52 43.549449465899755" height="43.549449465899755" width="395.52"><g><svg viewBox="0 0 395.52 43.549449465899755" height="43.549449465899755" width="395.52"><g><svg viewBox="0 0 395.52 43.549449465899755" height="43.549449465899755" width="395.52"><g><svg viewBox="0 0 395.52 43.549449465899755" height="43.549449465899755" width="395.52"><g><svg viewBox="0 0 395.52 43.549449465899755" height="43.549449465899755" width="395.52"><g><svg viewBox="0 0 395.52 43.549449465899755" height="43.549449465899755" width="395.52"><g transform="matrix(1,0,0,1,0,0)"><svg width="395.52" viewBox="3.049999952316284 -33 304.2300109863281 33.5" height="43.549449465899755" data-palette-color="#5775ae"><path d="M30.3 0L3.05 0 3.05-33 29.65-33 29.65-25.35 13.25-25.35 13.25-20 26.35-20 26.35-12.9 13.25-12.9 13.25-7.65 30.3-7.65 30.3 0ZM44.65-33L44.65-7.65 60.35-7.65 60.35 0 34.45 0 34.45-33 44.65-33ZM74.84-33L74.84-7.65 90.55-7.65 90.55 0 64.65 0 64.65-33 74.84-33ZM122.09 0L94.84 0 94.84-33 121.44-33 121.44-25.35 105.04-25.35 105.04-20 118.14-20 118.14-12.9 105.04-12.9 105.04-7.65 122.09-7.65 122.09 0ZM148.39-33L157.34-33 157.34 0 146.14 0 137.14-16.35 135.04-20.8 134.94-20.8 135.14-14.3 135.14 0 126.24 0 126.24-33 137.39-33 146.39-16.65 148.54-12.2 148.59-12.2 148.39-18.7 148.39-33ZM192.99-33L203.19-33 203.19-13.15Q203.19-6.7 199.39-3.1 195.59 0.5 188.49 0.5L188.49 0.5Q183.29 0.5 180.11-1.35 176.94-3.2 175.79-6.45 174.64-9.7 175.29-13.85L175.29-13.85 185.34-15.55Q184.74-10.95 185.66-9.13 186.59-7.3 188.94-7.3L188.94-7.3Q191.09-7.3 192.04-8.93 192.99-10.55 192.99-14.05L192.99-14.05 192.99-33ZM215.63 0L205.43 0 216.53-33 228.78-33 239.93 0 229.43 0 224.03-20 222.63-25.4 222.53-25.4 221.18-20.05 215.63 0ZM232.03-6.85L213.38-6.85 213.38-13.45 232.03-13.45 232.03-6.85ZM264.98-33L273.93-33 273.93 0 262.73 0 253.73-16.35 251.63-20.8 251.53-20.8 251.73-14.3 251.73 0 242.83 0 242.83-33 253.98-33 262.98-16.65 265.13-12.2 265.18-12.2 264.98-18.7 264.98-33ZM307.28 0L280.03 0 280.03-33 306.63-33 306.63-25.35 290.23-25.35 290.23-20 303.33-20 303.33-12.9 290.23-12.9 290.23-7.65 307.28-7.65 307.28 0Z" opacity="1" transform="matrix(1,0,0,1,0,0)" fill="#5775ae" class="undefined-text-0" data-fill-palette-color="primary" id="text-0"></path></svg></g></svg></g></svg></g></svg></g></svg></g></svg></g></svg></g></svg></g></svg><rect width="395.52" height="247.2" fill="none" stroke="none" visibility="hidden"></rect></g></svg></g></svg>